<svg id="SvgjsSvg1001" width="256" height="256" xmlns="http://www.w3.org/2000/svg" version="1.1" xmlns:xlink="http://www.w3.org/1999/xlink" xmlns:svgjs="http://svgjs.com/svgjs"><defs id="SvgjsDefs1002"></defs><g id="SvgjsG1008"><svg xmlns="http://www.w3.org/2000/svg" width="256" height="256" viewBox="0 0 24 24"><g transform="translate(4 3)" fill="#000000" class="color000 svgShape"><path fill="none" d="M0,0H24V24H0Z" data-name="Path 3721" transform="translate(-4 -3)"></path><path fill="#525863" d="M9.6,14.7a3.75,3.75,0,1,0,3.75,3.75A3.75,3.75,0,0,0,9.6,14.7Zm0,5.7a1.95,1.95,0,1,1,1.95-1.95A1.952,1.952,0,0,1,9.6,20.4ZM16.8,12H13.95a.6.6,0,0,1-.6-.6A2.4,2.4,0,0,0,10.95,9H8.25a2.4,2.4,0,0,0-2.4,2.4.6.6,0,0,1-.6.6H2.4A2.4,2.4,0,0,0,0,14.4v8.4a2.4,2.4,0,0,0,2.4,2.4H16.8a2.4,2.4,0,0,0,2.4-2.4V14.4A2.4,2.4,0,0,0,16.8,12Zm.6,10.8a.6.6,0,0,1-.6.6H2.4a.6.6,0,0,1-.6-.6V14.4a.6.6,0,0,1,.6-.6H5.25a2.4,2.4,0,0,0,2.4-2.4.6.6,0,0,1,.6-.6h2.7a.6.6,0,0,1,.6.6,2.4,2.4,0,0,0,2.4,2.4H16.8a.6.6,0,0,1,.6.6Z" data-name="Path 2666" transform="translate(-1.6 -8.1)" class="color525863 svgShape"></path></g></svg></g></svg>
